<?xml version="1.0" encoding="UTF-8" standalone="no"?>
<!-- Created with Inkscape (http://www.inkscape.org/) -->

<svg
   width="1cm"
   height="0.5cm"
   viewBox="0 0 10 5"
   version="1.1"
   id="svg1"
   inkscape:version="1.3.2 (1:1.3.2+202311252150+091e20ef0f)"
   sodipodi:docname="planet_1.svg"
   inkscape:export-filename="planet_1.png"
   inkscape:export-xdpi="2600.96"
   inkscape:export-ydpi="2600.96"
   xmlns:inkscape="http://www.inkscape.org/namespaces/inkscape"
   xmlns:sodipodi="http://sodipodi.sourceforge.net/DTD/sodipodi-0.dtd"
   xmlns="http://www.w3.org/2000/svg"
   xmlns:svg="http://www.w3.org/2000/svg">
  <sodipodi:namedview
     id="namedview1"
     pagecolor="#478eff"
     bordercolor="#000000"
     borderopacity="0.25"
     inkscape:showpageshadow="2"
     inkscape:pageopacity="0.0"
     inkscape:pagecheckerboard="0"
     inkscape:deskcolor="#d1d1d1"
     inkscape:document-units="mm"
     inkscape:zoom="23.461504"
     inkscape:cx="18.690191"
     inkscape:cy="8.3327991"
     inkscape:window-width="1866"
     inkscape:window-height="1023"
     inkscape:window-x="1920"
     inkscape:window-y="31"
     inkscape:window-maximized="1"
     inkscape:current-layer="layer1"
     inkscape:export-bgcolor="#488cffff" />
  <defs
     id="defs1" />
  <g
     inkscape:label="Layer 1"
     inkscape:groupmode="layer"
     id="layer1">
    <path
       style="fill:#85b94f;fill-opacity:1;stroke:#000000;stroke-width:0.05;stroke-linecap:butt;stroke-dasharray:none;stroke-opacity:1"
       d="m 3.2126534,3.8369962 c 0,0 0.200724,0.346628 0.6107472,0.44068 0.4100235,0.094052 0.668193,0.3447999 0.668193,0.3447999 0,0 0.3586856,-0.3604232 0.3126923,-0.6540201 -0.045994,-0.2935967 0.1572002,-0.7935846 0.1572002,-0.7935846 0,0 0.4479241,0.089949 0.557832,0.1695408 0.1099076,0.079592 0.3113368,-0.6083423 0.3113368,-0.6083423 0,0 -0.5975213,-0.068097 -0.6266779,-0.409672 C 5.1748208,1.9848236 5.1748965,1.5194538 5.1748965,1.5194538 Z"
       id="path1" />
    <path
       style="fill:#85b94f;fill-opacity:1;stroke:#000000;stroke-width:0.05;stroke-dasharray:none;stroke-opacity:1"
       d="m 6.4406575,3.2119104 c 0,0 0.2453537,1.1445142 0.5061309,0.5959766 C 7.207566,3.2593496 7.7615157,3.1228767 7.7615157,3.1228767 l 0.014761,-0.5509424 c 0,0 0.6628601,-0.089836 0.3680994,-0.4408018 C 7.8496152,1.780167 8.7217422,1.8523701 8.7217422,1.8523701 c 0,0 1.4813788,-0.5076283 0.7097895,-0.7563241 C 8.6599428,0.84735015 7.7531493,1.7591142 7.4755659,1.3530033 7.1979828,0.94689245 7.5814426,0.47630203 7.5814426,0.47630203 c 0,0 -2.4887376,-0.84515134 -1.9843326,0.0262144 C 6.1015148,1.3738822 6.2238751,1.7008008 6.2238751,1.7008008 Z"
       id="path2" />
    <path
       d="m 0.92914225,0.49350993 c -0.0529601,6.5147e-4 -0.10062911,0.007575 -0.14055989,0.0222209 -0.31944627,0.11716371 -0.0981852,0.19068604 -0.0981852,0.19068604 0,0 -0.26221085,0.92529923 0.10697021,1.49706623 C 1.1665484,2.7752498 0.19854767,3.4110438 0.57619222,3.4638713 0.95383676,3.5166987 2.8267443,2.8957579 2.6137939,2.5455811 2.4008436,2.1954043 2.2854527,1.2786295 2.6535848,1.3735596 3.0217166,1.4684897 3.680783,0.96881556 3.5615397,0.74930827 3.4422963,0.52980101 2.1031907,0.4557956 2.0117635,0.62631836 1.9317646,0.77552579 1.2998631,0.48894963 0.92914225,0.49350993 Z"
       style="fill:#85b94f;stroke:#000000;stroke-width:0.05;stroke-dasharray:none;stroke-opacity:1"
       id="path4" />
  </g>
</svg>
