# Blender v3.0.0 OBJ File: 'asteroid.blend'
# www.blender.org
o asteroid2_Icosphere.002
v -0.089375 -0.965666 0.148663
v 0.700457 -0.374863 0.774587
v -0.263040 -0.386350 1.576222
v -0.630931 -1.141833 -0.714456
v 0.495736 -0.420835 -1.082166
v 1.019527 -0.281992 -0.055217
v 0.429879 0.724026 1.137853
v -0.900213 0.301481 0.653492
v -0.419596 -0.543274 -1.470256
v 0.926006 0.633937 -1.276497
v 0.610665 0.468106 0.005088
v -0.509634 0.888282 -0.214542
v -0.157539 -0.867551 0.780940
v 0.123977 -0.809721 0.446226
v 0.473609 -0.550869 1.308612
v 0.799084 -0.343954 0.578138
v 0.552557 -0.727228 0.080196
v -0.536903 -0.918483 -0.132922
v -0.554701 -0.522456 0.823547
v 0.207019 -0.828035 -0.409958
v -0.018356 -1.161982 -1.136389
v 0.908519 -0.397451 -0.744779
v 0.838420 0.076925 0.548868
v 1.002942 0.207447 0.169690
v 0.298618 -0.081575 2.058645
v 0.413907 0.261018 1.300633
v -1.299967 -0.157556 0.308269
v -0.915298 0.498956 1.545731
v 0.161458 -0.429189 -1.590802
v -0.522253 -0.961175 -1.303902
v 1.198097 0.235935 -0.936268
v 0.940366 0.136138 -1.652239
v 0.690430 0.523203 0.488991
v -0.091965 1.074959 1.645270
v -1.346492 0.144877 -0.384245
v 0.473799 0.169880 -1.018677
v 0.895421 0.714705 -0.425669
v -0.213062 0.715078 0.075975
v 0.288923 0.871974 -0.064423
v -1.094789 0.454652 -0.097724
v -0.346250 0.422922 -0.919973
v 0.405401 0.933313 -0.749044
vt 0.181819 0.000000
vt 0.227273 0.078731
vt 0.136365 0.078731
vt 0.272728 0.157461
vt 0.318182 0.078731
vt 0.363637 0.157461
vt 0.909091 0.000000
vt 0.954545 0.078731
vt 0.863636 0.078731
vt 0.727273 0.000000
vt 0.772727 0.078731
vt 0.681818 0.078731
vt 0.545455 0.000000
vt 0.590909 0.078731
vt 0.500000 0.078731
vt 0.318182 0.236191
vt 0.090910 0.157461
vt 0.181819 0.157461
vt 0.136365 0.236191
vt 0.818182 0.157461
vt 0.909091 0.157461
vt 0.863636 0.236191
vt 0.636364 0.157461
vt 0.727273 0.157461
vt 0.681818 0.236191
vt 0.454546 0.157461
vt 0.545455 0.157461
vt 0.500000 0.236191
vt 0.227273 0.236191
vt 0.045455 0.236191
vt 0.772727 0.236191
vt 0.590909 0.236191
vt 0.409092 0.236191
vt 0.181819 0.314921
vt 0.272728 0.314921
vt 0.227273 0.393651
vt 0.000000 0.314921
vt 0.090910 0.314921
vt 0.045455 0.393651
vt 0.727273 0.314921
vt 0.818182 0.314921
vt 0.772727 0.393651
vt 0.545455 0.314921
vt 0.636364 0.314921
vt 0.590909 0.393651
vt 0.363637 0.314921
vt 0.454546 0.314921
vt 0.409092 0.393651
vt 0.500000 0.393651
vt 0.454546 0.472382
vt 0.681818 0.393651
vt 0.636364 0.472382
vt 0.863636 0.393651
vt 0.818182 0.472382
vt 0.909091 0.314921
vt 0.136365 0.393651
vt 0.090910 0.472382
vt 0.318182 0.393651
vt 0.272728 0.472382
vt 0.954545 0.236191
vt 1.000000 0.157461
vt 0.409092 0.078731
vt 0.363637 0.000000
vn 0.4014 -0.8975 0.1826
vn 0.5431 -0.8275 0.1425
vn -0.1852 -0.9739 0.1312
vn 0.0362 -0.9746 -0.2209
vn 0.3432 -0.9380 -0.0490
vn 0.8958 -0.0530 0.4414
vn 0.0037 -0.8473 0.5310
vn -0.5882 -0.7396 0.3270
vn 0.7380 -0.4770 -0.4772
vn 0.8986 -0.4327 -0.0722
vn 0.8687 -0.0180 0.4950
vn -0.4994 -0.3405 0.7966
vn -0.9032 -0.3344 -0.2690
vn 0.5350 -0.7739 -0.3389
vn 0.9839 -0.0459 0.1724
vn 0.2818 0.9427 -0.1786
vn -0.8278 0.4678 0.3098
vn -0.5155 0.4533 -0.7272
vn -0.6355 0.2059 -0.7441
vn 0.5303 0.5356 0.6572
vn 0.0035 0.9960 0.0898
vn 0.3254 0.9353 0.1392
vn 0.4440 0.8934 -0.0688
vn -0.3690 0.7343 -0.5698
vn -0.0110 0.3321 -0.9432
vn 0.0471 0.4917 -0.8695
vn -0.5678 0.6205 -0.5409
vn -0.4519 0.7753 -0.4413
vn -0.8575 0.4134 0.3064
vn -0.3249 0.6287 0.7065
vn -0.2413 0.9498 -0.1992
vn 0.3750 0.8968 -0.2346
vn -0.0920 0.8112 0.5775
vn -0.0919 0.8110 0.5778
vn 0.7831 0.5901 -0.1963
vn 0.2520 0.7586 0.6009
vn 0.9046 0.3909 0.1697
vn 0.8341 0.5511 -0.0223
vn -0.7278 0.3996 -0.5573
vn -0.5494 0.7089 -0.4423
vn -0.2731 0.7351 -0.6206
vn -0.7773 -0.0584 -0.6264
vn -0.8509 -0.5000 -0.1612
vn -0.8179 0.5051 0.2755
vn -0.5473 0.8151 -0.1897
vn -0.2791 0.2382 0.9302
vn 0.7612 0.4305 0.4851
vn 0.9335 0.0898 0.3471
vn 0.8529 0.3364 0.3992
vn 0.9396 0.2864 -0.1875
vn 0.8845 0.2971 -0.3598
vn 0.8526 -0.4630 -0.2424
vn 0.4132 -0.7912 -0.4507
vn -0.1266 -0.3399 -0.9319
vn 0.0653 -0.5374 -0.8408
vn -0.2545 -0.9105 -0.3260
vn -0.6762 0.7168 -0.1701
vn -0.6355 -0.5826 0.5066
vn -0.7485 -0.5382 0.3874
vn 0.9868 0.0223 0.1602
vn 0.9804 0.0739 0.1825
vn 0.9095 0.0709 0.4097
vn 0.3616 0.8220 0.4399
vn 0.9231 -0.0599 0.3799
vn 0.9417 -0.1136 0.3167
vn 0.6915 -0.7223 0.0096
vn 0.4650 -0.8728 -0.1483
vn 0.3512 -0.8600 -0.3701
vn 0.8214 -0.5703 0.0073
vn 0.2384 -0.9083 0.3436
vn 0.1930 -0.9260 0.3244
vn -0.1520 -0.9142 0.3757
vn -0.6088 -0.7369 0.2938
vn -0.5898 -0.7232 0.3593
vn 0.7056 -0.6858 0.1785
vn 0.4750 -0.7952 0.3769
vn 0.3602 -0.9072 0.2172
vn -0.0032 -0.8558 0.5174
vn 0.3515 -0.9263 0.1356
vn 0.6043 -0.7967 -0.0059
s off
f 1/1/1 14/2/1 13/3/1
f 2/4/2 14/5/2 16/6/2
f 1/7/3 13/8/3 18/9/3
f 1/10/4 18/11/4 20/12/4
f 1/13/5 20/14/5 17/15/5
f 2/4/6 16/6/6 23/16/6
f 3/17/7 15/18/7 25/19/7
f 4/20/8 19/21/8 27/22/8
f 5/23/9 21/24/9 29/25/9
f 6/26/10 22/27/10 31/28/10
f 2/4/11 23/16/11 26/29/11
f 3/17/12 25/19/12 28/30/12
f 4/20/13 27/22/13 30/31/13
f 5/23/14 29/25/14 32/32/14
f 6/26/15 31/28/15 24/33/15
f 7/34/16 33/35/16 38/36/16
f 8/37/17 34/38/17 40/39/17
f 9/40/18 35/41/18 41/42/18
f 10/43/19 36/44/19 42/45/19
f 11/46/20 37/47/20 39/48/20
f 39/48/21 42/49/21 12/50/21
f 39/48/22 37/47/22 42/49/22
f 37/47/23 10/43/23 42/49/23
f 42/45/24 41/51/24 12/52/24
f 42/45/25 36/44/25 41/51/25
f 36/44/26 9/40/26 41/51/26
f 41/42/27 40/53/27 12/54/27
f 41/42/28 35/41/28 40/53/28
f 35/41/29 8/55/29 40/53/29
f 40/39/30 38/56/30 12/57/30
f 40/39/31 34/38/31 38/56/31
f 34/38/32 7/34/32 38/56/32
f 38/36/33 39/58/33 12/59/33
f 38/36/34 33/35/34 39/58/34
f 33/35/35 11/46/35 39/58/35
f 24/33/36 37/47/36 11/46/36
f 24/33/37 31/28/37 37/47/37
f 31/28/38 10/43/38 37/47/38
f 32/32/39 36/44/39 10/43/39
f 32/32/40 29/25/40 36/44/40
f 29/25/41 9/40/41 36/44/41
f 30/31/42 35/41/42 9/40/42
f 30/31/43 27/22/43 35/41/43
f 27/22/44 8/55/44 35/41/44
f 28/30/45 34/38/45 8/37/45
f 28/30/46 25/19/46 34/38/46
f 25/19/47 7/34/47 34/38/47
f 26/29/48 33/35/48 7/34/48
f 26/29/49 23/16/49 33/35/49
f 23/16/50 11/46/50 33/35/50
f 31/28/51 32/32/51 10/43/51
f 31/28/52 22/27/52 32/32/52
f 22/27/53 5/23/53 32/32/53
f 29/25/54 30/31/54 9/40/54
f 29/25/55 21/24/55 30/31/55
f 21/24/56 4/20/56 30/31/56
f 27/22/57 28/60/57 8/55/57
f 27/22/58 19/21/58 28/60/58
f 19/21/59 3/61/59 28/60/59
f 25/19/60 26/29/60 7/34/60
f 25/19/61 15/18/61 26/29/61
f 15/18/62 2/4/62 26/29/62
f 23/16/63 24/33/63 11/46/63
f 23/16/64 16/6/64 24/33/64
f 16/6/65 6/26/65 24/33/65
f 17/15/66 22/27/66 6/26/66
f 17/15/67 20/14/67 22/27/67
f 20/14/68 5/23/68 22/27/68
f 20/12/69 21/24/69 5/23/69
f 20/12/70 18/11/70 21/24/70
f 18/11/71 4/20/71 21/24/71
f 18/9/72 19/21/72 4/20/72
f 18/9/73 13/8/73 19/21/73
f 13/8/74 3/61/74 19/21/74
f 16/6/75 17/62/75 6/26/75
f 16/6/76 14/5/76 17/62/76
f 14/5/77 1/63/77 17/62/77
f 13/3/78 15/18/78 3/17/78
f 13/3/79 14/2/79 15/18/79
f 14/2/80 2/4/80 15/18/80
